<svg viewBox="0 0 412 153" fill="none" xmlns="http://www.w3.org/2000/svg"><path d="M16.3131 18.2285H2.08114C2.03626 18.2285 1.99988 18.2649 1.99988 18.3097V81.6741C1.99988 81.7189 2.03626 81.7553 2.08114 81.7553H16.3131C16.358 81.7553 16.3944 81.7189 16.3944 81.6741V18.3097C16.3944 18.2649 16.358 18.2285 16.3131 18.2285Z" fill="#F0B90B"></path><path d="M48.044 81.7553H34.7384C34.6842 81.7553 34.6409 81.712 34.6409 81.6579V18.3259C34.6409 18.2718 34.6842 18.2285 34.7384 18.2285H49.0029C49.0354 18.2285 49.0625 18.2448 49.0787 18.2664L81.6439 58.6635C81.6764 58.7068 81.7414 58.7122 81.7847 58.6798C81.8064 58.6581 81.8226 58.631 81.8226 58.604V18.3259C81.8226 18.2718 81.866 18.2285 81.9202 18.2285H95.2257C95.2799 18.2285 95.3233 18.2718 95.3233 18.3259V81.6579C95.3233 81.712 95.2799 81.7553 95.2257 81.7553H80.9775C80.945 81.7553 80.9179 81.7391 80.9016 81.7174L48.3203 41.2987C48.2878 41.2554 48.2228 41.2499 48.1794 41.2824C48.1577 41.3041 48.1415 41.3311 48.1415 41.3582V81.6525C48.1415 81.7066 48.0927 81.7499 48.0386 81.7499L48.044 81.7553Z" fill="#F0B90B"></path><path d="M162.264 69.7562V81.6269C162.264 81.6973 162.205 81.7568 162.134 81.7568H113.598C113.527 81.7568 113.468 81.6973 113.468 81.6269V18.3545C113.468 18.2842 113.527 18.2246 113.598 18.2246H127.808C127.879 18.2246 127.938 18.2842 127.938 18.3545V69.5018C127.938 69.5722 127.998 69.6317 128.068 69.6317H162.134C162.205 69.6317 162.264 69.6913 162.264 69.7616V69.7562Z" fill="#F0B90B"></path><path d="M222.82 67.2864L192.616 67.2539C192.579 67.2539 192.541 67.2756 192.524 67.3135L185.682 81.7012C185.666 81.7391 185.628 81.7607 185.59 81.7607H171.856C171.802 81.7607 171.753 81.7174 171.753 81.6579C171.753 81.6416 171.753 81.6254 171.764 81.6146L202.709 18.2881C202.726 18.2502 202.764 18.2285 202.802 18.2285H216.27C216.308 18.2285 216.346 18.2502 216.362 18.2881L245.953 81.6146C245.98 81.6633 245.953 81.7282 245.904 81.7499C245.888 81.7553 245.871 81.7607 245.861 81.7607H229.581C229.537 81.7607 229.499 81.7391 229.483 81.7012L222.917 67.3513C222.901 67.3135 222.863 67.2918 222.82 67.2918V67.2864ZM198.565 54.8798C198.538 54.934 198.565 55.0043 198.619 55.0314C198.635 55.0368 198.652 55.0422 198.668 55.0422L217.077 55.1397C217.136 55.1397 217.191 55.0909 217.191 55.026C217.191 55.0097 217.191 54.9935 217.18 54.9827L208.078 35.1657C208.051 35.1116 207.986 35.0846 207.927 35.1116C207.905 35.1224 207.883 35.1387 207.872 35.1603L198.565 54.8798Z" fill="#F0B90B"></path><path d="M400.818 0H266.901C260.725 0 255.719 5.0016 255.719 11.1724V88.6484C255.719 94.8192 260.725 99.8208 266.901 99.8208H400.818C406.994 99.8208 412 94.8192 412 88.6484V11.1724C412 5.0016 406.994 0 400.818 0ZM327.87 81.7577H274.301C274.214 81.7577 274.149 81.6928 274.149 81.6061V69.021C274.149 68.7016 274.279 68.5717 274.48 68.3497C285.662 55.7591 296.844 43.174 308.031 30.5834C308.101 30.5022 308.08 30.4643 307.977 30.4589C300.983 30.3073 295.771 30.2856 292.342 30.3831C289.286 30.4751 286.09 30.3614 283.527 30.4101C280.77 30.4589 278.007 30.4589 275.249 30.4101C275.108 30.4101 275.038 30.3398 275.038 30.199V18.4745C275.038 18.3121 275.119 18.2309 275.282 18.2309H327.047C327.133 18.2309 327.209 18.3013 327.209 18.3933C327.117 22.112 327.096 25.8308 327.144 29.5549C327.161 30.6375 327.372 31.0759 326.603 31.9366C315.486 44.4244 304.38 56.9284 293.274 69.4432C293.165 69.5677 293.192 69.6272 293.355 69.6272H327.838C327.979 69.6272 328.049 69.6976 328.049 69.8383L328.06 81.5683C328.06 81.6928 327.995 81.7523 327.87 81.7523V81.7577ZM394.079 81.6278C394.079 81.6982 394.019 81.7577 393.949 81.7577H342.687C342.617 81.7577 342.557 81.6982 342.557 81.6278L342.546 18.3554C342.546 18.2851 342.606 18.2255 342.676 18.2255H392.101C392.172 18.2255 392.231 18.2851 392.231 18.3554V30.2478C392.231 30.3181 392.172 30.3777 392.101 30.3777L357.152 30.4534C357.082 30.4534 357.022 30.513 357.022 30.5834V42.4161C357.022 42.4865 357.082 42.5461 357.152 42.5461L389.533 42.5569C389.604 42.5569 389.663 42.6164 389.663 42.6868V54.5629C389.663 54.6333 389.604 54.6928 389.533 54.6928H357.152C357.082 54.6928 357.022 54.7523 357.022 54.8227V69.5027C357.022 69.5731 357.082 69.6326 357.152 69.6326H393.954C394.024 69.6326 394.084 69.6922 394.084 69.7625V81.6332L394.079 81.6278Z" fill="#F0B90B"></path><path d="M2 137.821H242" stroke="#F0B90B" stroke-width="3" stroke-linecap="round"></path><path d="M266.48 152.301C264.587 152.301 262.84 151.955 261.24 151.261C259.667 150.541 258.373 149.528 257.36 148.221L260.96 143.901C261.733 144.915 262.547 145.688 263.4 146.221C264.253 146.728 265.173 146.981 266.16 146.981C268.8 146.981 270.12 145.435 270.12 142.341V129.021H260.28V123.821H276.56V141.981C276.56 145.448 275.707 148.035 274 149.741C272.293 151.448 269.787 152.301 266.48 152.301ZM310.561 152.301C308.347 152.301 306.294 151.941 304.401 151.221C302.534 150.501 300.907 149.488 299.521 148.181C298.161 146.875 297.094 145.341 296.321 143.581C295.574 141.821 295.201 139.901 295.201 137.821C295.201 135.741 295.574 133.821 296.321 132.061C297.094 130.301 298.174 128.768 299.561 127.461C300.947 126.155 302.574 125.141 304.441 124.421C306.307 123.701 308.334 123.341 310.521 123.341C312.734 123.341 314.761 123.701 316.601 124.421C318.467 125.141 320.081 126.155 321.441 127.461C322.827 128.768 323.907 130.301 324.681 132.061C325.454 133.795 325.841 135.715 325.841 137.821C325.841 139.901 325.454 141.835 324.681 143.621C323.907 145.381 322.827 146.915 321.441 148.221C320.081 149.501 318.467 150.501 316.601 151.221C314.761 151.941 312.747 152.301 310.561 152.301ZM310.521 146.781C311.774 146.781 312.921 146.568 313.961 146.141C315.027 145.715 315.961 145.101 316.761 144.301C317.561 143.501 318.174 142.555 318.601 141.461C319.054 140.368 319.281 139.155 319.281 137.821C319.281 136.488 319.054 135.275 318.601 134.181C318.174 133.088 317.561 132.141 316.761 131.341C315.987 130.541 315.067 129.928 314.001 129.501C312.934 129.075 311.774 128.861 310.521 128.861C309.267 128.861 308.107 129.075 307.041 129.501C306.001 129.928 305.081 130.541 304.281 131.341C303.481 132.141 302.854 133.088 302.401 134.181C301.974 135.275 301.761 136.488 301.761 137.821C301.761 139.128 301.974 140.341 302.401 141.461C302.854 142.555 303.467 143.501 304.241 144.301C305.041 145.101 305.974 145.715 307.041 146.141C308.107 146.568 309.267 146.781 310.521 146.781ZM344.711 151.821V123.821H358.391C361.911 123.821 364.551 124.488 366.311 125.821C368.097 127.155 368.991 128.915 368.991 131.101C368.991 132.568 368.631 133.848 367.911 134.941C367.191 136.008 366.204 136.835 364.951 137.421C363.697 138.008 362.257 138.301 360.631 138.301L361.391 136.661C363.151 136.661 364.711 136.955 366.071 137.541C367.431 138.101 368.484 138.941 369.231 140.061C370.004 141.181 370.391 142.555 370.391 144.181C370.391 146.581 369.444 148.461 367.551 149.821C365.657 151.155 362.871 151.821 359.191 151.821H344.711ZM351.151 146.941H358.711C360.391 146.941 361.657 146.675 362.511 146.141C363.391 145.581 363.831 144.701 363.831 143.501C363.831 142.328 363.391 141.461 362.511 140.901C361.657 140.315 360.391 140.021 358.711 140.021H350.671V135.301H357.591C359.164 135.301 360.364 135.035 361.191 134.501C362.044 133.941 362.471 133.101 362.471 131.981C362.471 130.888 362.044 130.075 361.191 129.541C360.364 128.981 359.164 128.701 357.591 128.701H351.151V146.941ZM398.497 152.301C396.257 152.301 394.11 152.008 392.057 151.421C390.003 150.808 388.35 150.021 387.097 149.061L389.297 144.181C390.497 145.035 391.91 145.741 393.537 146.301C395.19 146.835 396.857 147.101 398.537 147.101C399.817 147.101 400.843 146.981 401.617 146.741C402.417 146.475 403.003 146.115 403.377 145.661C403.75 145.208 403.937 144.688 403.937 144.101C403.937 143.355 403.643 142.768 403.057 142.341C402.47 141.888 401.697 141.528 400.737 141.261C399.777 140.968 398.71 140.701 397.537 140.461C396.39 140.195 395.23 139.875 394.057 139.501C392.91 139.128 391.857 138.648 390.897 138.061C389.937 137.475 389.15 136.701 388.537 135.741C387.95 134.781 387.657 133.555 387.657 132.061C387.657 130.461 388.083 129.008 388.937 127.701C389.817 126.368 391.123 125.315 392.857 124.541C394.617 123.741 396.817 123.341 399.457 123.341C401.217 123.341 402.95 123.555 404.657 123.981C406.363 124.381 407.87 124.995 409.177 125.821L407.177 130.741C405.87 129.995 404.563 129.448 403.257 129.101C401.95 128.728 400.67 128.541 399.417 128.541C398.163 128.541 397.137 128.688 396.337 128.981C395.537 129.275 394.963 129.661 394.617 130.141C394.27 130.595 394.097 131.128 394.097 131.741C394.097 132.461 394.39 133.048 394.977 133.501C395.563 133.928 396.337 134.275 397.297 134.541C398.257 134.808 399.31 135.075 400.457 135.341C401.63 135.608 402.79 135.915 403.937 136.261C405.11 136.608 406.177 137.075 407.137 137.661C408.097 138.248 408.87 139.021 409.457 139.981C410.07 140.941 410.377 142.155 410.377 143.621C410.377 145.195 409.937 146.635 409.057 147.941C408.177 149.248 406.857 150.301 405.097 151.101C403.363 151.901 401.163 152.301 398.497 152.301Z" fill="#F0B90B"></path></svg>